<svg width="60" height="60" viewBox="0 0 60 60" fill="none" xmlns="http://www.w3.org/2000/svg">
<g clip-path="url(#clip0_18_1056)">
<path fill-rule="evenodd" clip-rule="evenodd" d="M30.4007 2.29072C42.4432 18.4541 36.6394 37.9584 24.9868 52.7262C24.7871 52.9802 24.83 53.3493 25.084 53.5489C25.338 53.7486 25.707 53.7057 25.9067 53.4517C37.8865 38.271 43.7196 18.2063 31.3394 1.59033C31.147 1.33109 30.7801 1.27778 30.5198 1.47117C30.2606 1.66352 30.2073 2.03043 30.4007 2.29072Z" fill="#5F6A70"/>
<path fill-rule="evenodd" clip-rule="evenodd" d="M25.6657 52.812C25.8235 51.7948 26.0357 50.5205 26.0556 50.3752C26.5939 46.4374 26.4925 42.627 25.8308 38.6996C25.7775 38.3808 25.4743 38.1654 25.1555 38.2188C24.8367 38.2721 24.6214 38.5752 24.6747 38.8941C25.3176 42.7023 25.4169 46.3976 24.8942 50.2174C24.8639 50.44 24.3851 53.3043 24.3318 53.8908C24.3088 54.1312 24.3705 54.2744 24.3883 54.3068C24.4761 54.4824 24.6057 54.5598 24.7165 54.5995C24.8419 54.6434 25.0667 54.6654 25.3259 54.5316C25.5967 54.3905 26.0838 53.9619 26.2155 53.8636C28.207 52.3865 30.3008 50.5644 32.5766 49.2755C34.7467 48.0462 37.0852 47.3008 39.6703 47.9082C39.985 47.9824 40.3007 47.7859 40.3749 47.4712C40.4491 47.1566 40.2526 46.8409 39.938 46.7666C37.0476 46.0882 34.4247 46.8817 31.9995 48.2553C29.7373 49.5369 27.6487 51.3286 25.6657 52.812Z" fill="#5F6A70"/>
</g>
<defs>
<clipPath id="clip0_18_1056">
<rect width="42.4178" height="42.4178" fill="white" transform="translate(0 29.9939) rotate(-45)"/>
</clipPath>
</defs>
</svg>
