<svg width="108" height="65" viewBox="0 0 108 65" fill="none" xmlns="http://www.w3.org/2000/svg">
<path d="M44.0533 3C43.7491 3 43.4599 3.17271 43.2606 3.47334L38.7657 10.2559C38.6004 10.5053 38.5094 10.8242 38.5094 11.1543V18.1744C38.5094 19.4442 39.7151 20.0323 40.351 19.0728L43.2606 14.6824C43.4599 14.3818 43.7491 14.2091 44.0533 14.2091H67.4604C68.0398 14.2091 68.5094 13.5949 68.5094 12.8373V4.37174C68.5094 3.61415 68.0398 3 67.4604 3H44.0533Z" fill="#009966"/>
<path d="M44.0533 17.3668C43.7491 17.3668 43.4599 17.5395 43.2606 17.8402L38.7657 24.6227C38.6004 24.8721 38.5094 25.191 38.5094 25.5211V32.5412C38.5094 33.811 39.7151 34.3992 40.351 33.4396L43.2606 29.0492C43.4599 28.7486 43.7491 28.5759 44.0533 28.5759H67.4604C68.0398 28.5759 68.5094 27.9617 68.5094 27.2042V18.7386C68.5094 17.981 68.0398 17.3668 67.4604 17.3668H44.0533Z" fill="#009966"/>
<path d="M39.5923 17.8267L44.3699 11.2159C44.3906 11.1873 44.4078 11.1739 44.4156 11.1688H64.7128C64.7194 11.1732 64.7307 11.1825 64.746 11.2009C64.7903 11.254 64.8406 11.3586 64.8406 11.5058V19.7571C64.8406 19.9044 64.7903 20.009 64.746 20.0621C64.7307 20.0805 64.7194 20.0897 64.7128 20.0941H44.4019C43.7161 20.0941 43.123 20.4521 42.7489 20.9697L39.6563 25.2489C39.644 25.266 39.6334 25.2782 39.625 25.2869C39.5881 25.2578 39.5094 25.17 39.5094 24.959V18.1166C39.5094 17.9891 39.5489 17.8867 39.5923 17.8267ZM64.706 11.1654C64.7061 11.1653 64.7074 11.1656 64.7099 11.167C64.7073 11.1663 64.706 11.1656 64.706 11.1654ZM64.706 20.0975C64.706 20.0973 64.7073 20.0966 64.7099 20.0959C64.7074 20.0973 64.7061 20.0977 64.706 20.0975ZM39.6016 25.3061C39.6016 25.306 39.6026 25.3054 39.6046 25.3045C39.6027 25.3058 39.6016 25.3062 39.6016 25.3061Z" fill="#0F172A" stroke="#009966" stroke-width="2"/>
<path d="M3 58.5676V49.1436H4.786L4.957 50.4736C5.261 49.9923 5.66 49.6123 6.154 49.3336C6.66067 49.055 7.24333 48.9156 7.902 48.9156C9.39667 48.9156 10.4353 49.5046 11.018 50.6826C11.36 50.138 11.816 49.7073 12.386 49.3906C12.9687 49.074 13.5957 48.9156 14.267 48.9156C15.445 48.9156 16.3697 49.2703 17.041 49.9796C17.7123 50.689 18.048 51.7466 18.048 53.1526V58.5676H16.034V53.3616C16.034 51.5376 15.3373 50.6256 13.944 50.6256C13.2347 50.6256 12.652 50.8916 12.196 51.4236C11.7527 51.9556 11.531 52.7156 11.531 53.7036V58.5676H9.517V53.3616C9.517 51.5376 8.814 50.6256 7.408 50.6256C6.71133 50.6256 6.135 50.8916 5.679 51.4236C5.23567 51.9556 5.014 52.7156 5.014 53.7036V58.5676H3Z" fill="#5F6A70"/>
<path d="M21.2094 62.7477L23.4704 57.7887H22.9194L19.1954 49.1436H21.3804L24.2684 56.1166L27.2894 49.1436H29.4174L23.3374 62.7477H21.2094Z" fill="#5F6A70"/>
<path d="M34.6277 58.7957C33.7031 58.7957 32.8797 58.593 32.1577 58.1877C31.4484 57.7697 30.8911 57.1933 30.4857 56.4587C30.0804 55.724 29.8777 54.869 29.8777 53.8937C29.8777 52.9057 30.0741 52.038 30.4667 51.2906C30.8721 50.5433 31.4294 49.9606 32.1387 49.5426C32.8607 49.1246 33.6967 48.9156 34.6467 48.9156C35.5714 48.9156 36.3757 49.1246 37.0597 49.5426C37.7437 49.948 38.2757 50.4926 38.6557 51.1766C39.0357 51.8606 39.2257 52.6143 39.2257 53.4376C39.2257 53.5643 39.2194 53.7036 39.2067 53.8556C39.2067 53.995 39.2004 54.1533 39.1877 54.3306H31.8537C31.9171 55.2426 32.2147 55.9393 32.7467 56.4207C33.2914 56.8893 33.9184 57.1236 34.6277 57.1236C35.1977 57.1236 35.6727 56.997 36.0527 56.7437C36.4454 56.4777 36.7367 56.123 36.9267 55.6796H38.9407C38.6874 56.5663 38.1807 57.3073 37.4207 57.9026C36.6734 58.498 35.7424 58.7957 34.6277 58.7957ZM34.6277 50.5686C33.9564 50.5686 33.3611 50.7713 32.8417 51.1766C32.3224 51.5693 32.0057 52.1646 31.8917 52.9626H37.2117C37.1737 52.228 36.9141 51.6453 36.4327 51.2146C35.9514 50.784 35.3497 50.5686 34.6277 50.5686Z" fill="#5F6A70"/>
<path d="M39.8468 58.5676L43.1908 53.8556L39.8468 49.1436H41.9938L44.5208 52.7536L47.0288 49.1436H49.1948L45.8508 53.8556L49.1948 58.5676H47.0288L44.5208 54.9576L41.9938 58.5676H39.8468Z" fill="#5F6A70"/>
<path d="M50.834 62.7477V49.1436H52.639L52.848 50.6066C53.152 50.1633 53.57 49.7706 54.102 49.4286C54.634 49.0866 55.318 48.9156 56.154 48.9156C57.066 48.9156 57.8703 49.131 58.567 49.5616C59.2637 49.9923 59.8083 50.5813 60.201 51.3286C60.6063 52.076 60.809 52.9246 60.809 53.8747C60.809 54.8247 60.6063 55.6733 60.201 56.4207C59.8083 57.1553 59.2637 57.738 58.567 58.1686C57.8703 58.5866 57.0597 58.7957 56.135 58.7957C55.4003 58.7957 54.748 58.65 54.178 58.3587C53.6207 58.0673 53.1773 57.6556 52.848 57.1236V62.7477H50.834ZM55.793 57.0476C56.6543 57.0476 57.3637 56.7563 57.921 56.1737C58.4783 55.5783 58.757 54.8056 58.757 53.8556C58.757 53.235 58.6303 52.684 58.377 52.2027C58.1237 51.7213 57.7753 51.3476 57.332 51.0816C56.8887 50.803 56.3757 50.6636 55.793 50.6636C54.9317 50.6636 54.2223 50.9613 53.665 51.5566C53.1203 52.152 52.848 52.9183 52.848 53.8556C52.848 54.8056 53.1203 55.5783 53.665 56.1737C54.2223 56.7563 54.9317 57.0476 55.793 57.0476Z" fill="#5F6A70"/>
<path d="M67.3953 58.7957C66.4706 58.7957 65.6473 58.593 64.9253 58.1877C64.216 57.7697 63.6586 57.1933 63.2533 56.4587C62.848 55.724 62.6453 54.869 62.6453 53.8937C62.6453 52.9057 62.8416 52.038 63.2343 51.2906C63.6396 50.5433 64.197 49.9606 64.9063 49.5426C65.6283 49.1246 66.4643 48.9156 67.4143 48.9156C68.339 48.9156 69.1433 49.1246 69.8273 49.5426C70.5113 49.948 71.0433 50.4926 71.4233 51.1766C71.8033 51.8606 71.9933 52.6143 71.9933 53.4376C71.9933 53.5643 71.987 53.7036 71.9743 53.8556C71.9743 53.995 71.968 54.1533 71.9553 54.3306H64.6213C64.6846 55.2426 64.9823 55.9393 65.5143 56.4207C66.059 56.8893 66.686 57.1236 67.3953 57.1236C67.9653 57.1236 68.4403 56.997 68.8203 56.7437C69.213 56.4777 69.5043 56.123 69.6943 55.6796H71.7083C71.455 56.5663 70.9483 57.3073 70.1883 57.9026C69.441 58.498 68.51 58.7957 67.3953 58.7957ZM67.3953 50.5686C66.724 50.5686 66.1286 50.7713 65.6093 51.1766C65.09 51.5693 64.7733 52.1646 64.6593 52.9626H69.9793C69.9413 52.228 69.6816 51.6453 69.2003 51.2146C68.719 50.784 68.1173 50.5686 67.3953 50.5686Z" fill="#5F6A70"/>
<path d="M74.083 58.5676V49.1436H75.869L76.021 50.7966C76.3123 50.214 76.7367 49.758 77.294 49.4286C77.864 49.0866 78.5163 48.9156 79.251 48.9156C80.391 48.9156 81.284 49.2703 81.93 49.9796C82.5887 50.689 82.918 51.7466 82.918 53.1526V58.5676H80.923V53.3616C80.923 51.5376 80.1757 50.6256 78.681 50.6256C77.9337 50.6256 77.313 50.8916 76.819 51.4236C76.3377 51.9556 76.097 52.7156 76.097 53.7036V58.5676H74.083Z" fill="#5F6A70"/>
<path d="M89.052 58.7957C87.8614 58.7957 86.8797 58.5043 86.107 57.9216C85.3344 57.339 84.891 56.5663 84.777 55.6036H86.81C86.9114 56.0343 87.152 56.408 87.532 56.7246C87.912 57.0286 88.4124 57.1806 89.033 57.1806C89.641 57.1806 90.0844 57.054 90.363 56.8006C90.6417 56.5473 90.781 56.256 90.781 55.9266C90.781 55.4453 90.5847 55.1223 90.192 54.9576C89.812 54.7803 89.28 54.622 88.596 54.4826C88.064 54.3686 87.532 54.2166 87 54.0266C86.4807 53.8366 86.0437 53.5706 85.689 53.2286C85.347 52.874 85.176 52.399 85.176 51.8036C85.176 50.9803 85.4927 50.2963 86.126 49.7516C86.7594 49.1943 87.646 48.9156 88.786 48.9156C89.8374 48.9156 90.686 49.169 91.332 49.6756C91.9907 50.1823 92.377 50.898 92.491 51.8226H90.553C90.4897 51.4173 90.2997 51.1006 89.983 50.8726C89.679 50.6446 89.2674 50.5307 88.748 50.5307C88.2414 50.5307 87.8487 50.6383 87.57 50.8536C87.2914 51.0563 87.152 51.3223 87.152 51.6516C87.152 51.981 87.342 52.2406 87.722 52.4306C88.1147 52.6206 88.6277 52.7916 89.261 52.9436C89.8944 53.083 90.477 53.2476 91.009 53.4376C91.5537 53.615 91.9907 53.881 92.32 54.2356C92.6494 54.5903 92.814 55.1096 92.814 55.7936C92.8267 56.655 92.491 57.3706 91.807 57.9406C91.1357 58.5106 90.2174 58.7957 89.052 58.7957Z" fill="#5F6A70"/>
<path d="M99.4207 58.7957C98.496 58.7957 97.6727 58.593 96.9507 58.1877C96.2414 57.7697 95.684 57.1933 95.2787 56.4587C94.8734 55.724 94.6707 54.869 94.6707 53.8937C94.6707 52.9057 94.867 52.038 95.2597 51.2906C95.665 50.5433 96.2224 49.9606 96.9317 49.5426C97.6537 49.1246 98.4897 48.9156 99.4397 48.9156C100.364 48.9156 101.169 49.1246 101.853 49.5426C102.537 49.948 103.069 50.4926 103.449 51.1766C103.829 51.8606 104.019 52.6143 104.019 53.4376C104.019 53.5643 104.012 53.7036 104 53.8556C104 53.995 103.993 54.1533 103.981 54.3306H96.6467C96.71 55.2426 97.0077 55.9393 97.5397 56.4207C98.0844 56.8893 98.7114 57.1236 99.4207 57.1236C99.9907 57.1236 100.466 56.997 100.846 56.7437C101.238 56.4777 101.53 56.123 101.72 55.6796H103.734C103.48 56.5663 102.974 57.3073 102.214 57.9026C101.466 58.498 100.535 58.7957 99.4207 58.7957ZM99.4207 50.5686C98.7494 50.5686 98.154 50.7713 97.6347 51.1766C97.1154 51.5693 96.7987 52.1646 96.6847 52.9626H102.005C101.967 52.228 101.707 51.6453 101.226 51.2146C100.744 50.784 100.143 50.5686 99.4207 50.5686Z" fill="#5F6A70"/>
</svg>
