<svg width="108" height="65" viewBox="0 0 108 65" fill="none" xmlns="http://www.w3.org/2000/svg">
<path d="M44.3082 0C44.004 0 43.7147 0.172711 43.5155 0.473345L39.0205 7.25586C38.8552 7.50526 38.7643 7.82422 38.7643 8.15425V15.1744C38.7643 16.4442 39.9699 17.0323 40.6059 16.0728L43.5155 11.6824C43.7147 11.3818 44.004 11.2091 44.3082 11.2091H67.7153C68.2946 11.2091 68.7643 10.5949 68.7643 9.83733V1.37174C68.7643 0.614149 68.2946 0 67.7153 0H44.3082Z" fill="#009966"/>
<path d="M44.3082 14.3668C44.004 14.3668 43.7147 14.5395 43.5155 14.8401L39.0205 21.6226C38.8552 21.872 38.7643 22.191 38.7643 22.521V29.5411C38.7643 30.8109 39.9699 31.3991 40.6059 30.4395L43.5155 26.0492C43.7147 25.7485 44.004 25.5758 44.3082 25.5758H67.7153C68.2946 25.5758 68.7643 24.9617 68.7643 24.2041V15.7385C68.7643 14.9809 68.2946 14.3668 67.7153 14.3668H44.3082Z" fill="#009966"/>
<path d="M39.8471 14.8267L44.6247 8.21593C44.6455 8.18725 44.6626 8.17395 44.6705 8.16882H64.9676C64.9742 8.17319 64.9855 8.18248 65.0009 8.20086C65.0451 8.25396 65.0954 8.35855 65.0954 8.50583V16.7571C65.0954 16.9044 65.0451 17.009 65.0009 17.0621C64.9855 17.0805 64.9742 17.0897 64.9676 17.0941H44.6568C43.971 17.0941 43.3778 17.4521 43.0037 17.9697L39.9112 22.2489C39.8989 22.266 39.8883 22.2782 39.8798 22.2869C39.843 22.2578 39.7643 22.17 39.7643 21.959V15.1166C39.7643 14.9891 39.8038 14.8867 39.8471 14.8267ZM64.9609 8.16542C64.9609 8.16525 64.9622 8.16561 64.9647 8.16702C64.9621 8.1663 64.9609 8.16559 64.9609 8.16542ZM64.9609 17.0975C64.9609 17.0973 64.9621 17.0966 64.9647 17.0959C64.9622 17.0973 64.9609 17.0977 64.9609 17.0975ZM39.8565 22.3061C39.8564 22.306 39.8574 22.3054 39.8595 22.3045C39.8575 22.3058 39.8565 22.3062 39.8565 22.3061Z" fill="#263238" stroke="#009966" stroke-width="2"/>
<path d="M6.25 58.9156C5.03333 58.9156 3.95 58.6489 3 58.1156C2.06667 57.5656 1.33333 56.8073 0.8 55.8406C0.266667 54.8739 0 53.7489 0 52.4656C0 51.1656 0.258334 50.0239 0.775 49.0406C1.30833 48.0573 2.04167 47.2906 2.975 46.7406C3.925 46.1906 5.025 45.9156 6.275 45.9156C7.49167 45.9156 8.55 46.1906 9.45 46.7406C10.35 47.2739 11.05 47.9906 11.55 48.8906C12.05 49.7906 12.3 50.7823 12.3 51.8656C12.3 52.0323 12.2917 52.2156 12.275 52.4156C12.275 52.5989 12.2667 52.8073 12.25 53.0406H2.6C2.68333 54.2406 3.075 55.1573 3.775 55.7906C4.49167 56.4073 5.31667 56.7156 6.25 56.7156C7 56.7156 7.625 56.5489 8.125 56.2156C8.64167 55.8656 9.025 55.3989 9.275 54.8156H11.925C11.5917 55.9823 10.925 56.9573 9.925 57.7406C8.94167 58.5239 7.71667 58.9156 6.25 58.9156ZM6.25 48.0906C5.36667 48.0906 4.58333 48.3573 3.9 48.8906C3.21667 49.4073 2.8 50.1906 2.65 51.2406H9.65C9.6 50.2739 9.25833 49.5073 8.625 48.9406C7.99167 48.3739 7.2 48.0906 6.25 48.0906Z" fill="#5F6A70"/>
<path d="M13.1172 58.6156L17.5172 52.4156L13.1172 46.2156H15.9422L19.2672 50.9656L22.5672 46.2156H25.4172L21.0172 52.4156L25.4172 58.6156H22.5672L19.2672 53.8656L15.9422 58.6156H13.1172Z" fill="#5F6A70"/>
<path d="M27.574 64.1156V46.2156H29.949L30.224 48.1406C30.624 47.5573 31.174 47.0406 31.874 46.5906C32.574 46.1406 33.474 45.9156 34.574 45.9156C35.774 45.9156 36.8324 46.1989 37.749 46.7656C38.6657 47.3323 39.3824 48.1073 39.899 49.0906C40.4324 50.0739 40.699 51.1906 40.699 52.4406C40.699 53.6906 40.4324 54.8073 39.899 55.7906C39.3824 56.7573 38.6657 57.5239 37.749 58.0906C36.8324 58.6406 35.7657 58.9156 34.549 58.9156C33.5824 58.9156 32.724 58.7239 31.974 58.3406C31.2407 57.9573 30.6574 57.4156 30.224 56.7156V64.1156H27.574ZM34.099 56.6156C35.2324 56.6156 36.1657 56.2323 36.899 55.4656C37.6324 54.6823 37.999 53.6656 37.999 52.4156C37.999 51.5989 37.8324 50.8739 37.499 50.2406C37.1657 49.6073 36.7074 49.1156 36.124 48.7656C35.5407 48.3989 34.8657 48.2156 34.099 48.2156C32.9657 48.2156 32.0324 48.6073 31.299 49.3906C30.5824 50.1739 30.224 51.1823 30.224 52.4156C30.224 53.6656 30.5824 54.6823 31.299 55.4656C32.0324 56.2323 32.9657 56.6156 34.099 56.6156Z" fill="#5F6A70"/>
<path d="M49.3652 58.9156C48.1486 58.9156 47.0652 58.6489 46.1152 58.1156C45.1819 57.5656 44.4486 56.8073 43.9152 55.8406C43.3819 54.8739 43.1152 53.7489 43.1152 52.4656C43.1152 51.1656 43.3736 50.0239 43.8902 49.0406C44.4236 48.0573 45.1569 47.2906 46.0902 46.7406C47.0402 46.1906 48.1402 45.9156 49.3902 45.9156C50.6069 45.9156 51.6652 46.1906 52.5652 46.7406C53.4652 47.2739 54.1652 47.9906 54.6652 48.8906C55.1652 49.7906 55.4152 50.7823 55.4152 51.8656C55.4152 52.0323 55.4069 52.2156 55.3902 52.4156C55.3902 52.5989 55.3819 52.8073 55.3652 53.0406H45.7152C45.7986 54.2406 46.1902 55.1573 46.8902 55.7906C47.6069 56.4073 48.4319 56.7156 49.3652 56.7156C50.1152 56.7156 50.7402 56.5489 51.2402 56.2156C51.7569 55.8656 52.1402 55.3989 52.3902 54.8156H55.0402C54.7069 55.9823 54.0402 56.9573 53.0402 57.7406C52.0569 58.5239 50.8319 58.9156 49.3652 58.9156ZM49.3652 48.0906C48.4819 48.0906 47.6986 48.3573 47.0152 48.8906C46.3319 49.4073 45.9152 50.1906 45.7652 51.2406H52.7652C52.7152 50.2739 52.3736 49.5073 51.7402 48.9406C51.1069 48.3739 50.3152 48.0906 49.3652 48.0906Z" fill="#5F6A70"/>
<path d="M58.1648 58.6156V46.2156H60.5148L60.7148 48.3906C61.0982 47.6239 61.6565 47.0239 62.3898 46.5906C63.1398 46.1406 63.9982 45.9156 64.9648 45.9156C66.4648 45.9156 67.6398 46.3823 68.4898 47.3156C69.3565 48.2489 69.7898 49.6406 69.7898 51.4906V58.6156H67.1648V51.7656C67.1648 49.3656 66.1815 48.1656 64.2148 48.1656C63.2315 48.1656 62.4148 48.5156 61.7648 49.2156C61.1315 49.9156 60.8148 50.9156 60.8148 52.2156V58.6156H58.1648Z" fill="#5F6A70"/>
<path d="M77.8609 58.9156C76.2943 58.9156 75.0026 58.5323 73.9859 57.7656C72.9693 56.9989 72.3859 55.9823 72.2359 54.7156H74.9109C75.0443 55.2823 75.3609 55.7739 75.8609 56.1906C76.3609 56.5906 77.0193 56.7906 77.8359 56.7906C78.6359 56.7906 79.2193 56.6239 79.5859 56.2906C79.9526 55.9573 80.1359 55.5739 80.1359 55.1406C80.1359 54.5073 79.8776 54.0823 79.3609 53.8656C78.8609 53.6323 78.1609 53.4239 77.2609 53.2406C76.5609 53.0906 75.8609 52.8906 75.1609 52.6406C74.4776 52.3906 73.9026 52.0406 73.4359 51.5906C72.9859 51.1239 72.7609 50.4989 72.7609 49.7156C72.7609 48.6323 73.1776 47.7323 74.0109 47.0156C74.8443 46.2823 76.0109 45.9156 77.5109 45.9156C78.8943 45.9156 80.0109 46.2489 80.8609 46.9156C81.7276 47.5823 82.2359 48.5239 82.3859 49.7406H79.8359C79.7526 49.2073 79.5026 48.7906 79.0859 48.4906C78.6859 48.1906 78.1443 48.0406 77.4609 48.0406C76.7943 48.0406 76.2776 48.1823 75.9109 48.4656C75.5443 48.7323 75.3609 49.0823 75.3609 49.5156C75.3609 49.9489 75.6109 50.2906 76.1109 50.5406C76.6276 50.7906 77.3026 51.0156 78.1359 51.2156C78.9693 51.3989 79.7359 51.6156 80.4359 51.8656C81.1526 52.0989 81.7276 52.4489 82.1609 52.9156C82.5943 53.3823 82.8109 54.0656 82.8109 54.9656C82.8276 56.0989 82.3859 57.0406 81.4859 57.7906C80.6026 58.5406 79.3943 58.9156 77.8609 58.9156Z" fill="#5F6A70"/>
<path d="M91.5039 58.9156C90.2872 58.9156 89.2039 58.6489 88.2539 58.1156C87.3206 57.5656 86.5872 56.8073 86.0539 55.8406C85.5206 54.8739 85.2539 53.7489 85.2539 52.4656C85.2539 51.1656 85.5122 50.0239 86.0289 49.0406C86.5622 48.0573 87.2956 47.2906 88.2289 46.7406C89.1789 46.1906 90.2789 45.9156 91.5289 45.9156C92.7456 45.9156 93.8039 46.1906 94.7039 46.7406C95.6039 47.2739 96.3039 47.9906 96.8039 48.8906C97.3039 49.7906 97.5539 50.7823 97.5539 51.8656C97.5539 52.0323 97.5456 52.2156 97.5289 52.4156C97.5289 52.5989 97.5206 52.8073 97.5039 53.0406H87.8539C87.9372 54.2406 88.3289 55.1573 89.0289 55.7906C89.7456 56.4073 90.5706 56.7156 91.5039 56.7156C92.2539 56.7156 92.8789 56.5489 93.3789 56.2156C93.8956 55.8656 94.2789 55.3989 94.5289 54.8156H97.1789C96.8456 55.9823 96.1789 56.9573 95.1789 57.7406C94.1956 58.5239 92.9706 58.9156 91.5039 58.9156ZM91.5039 48.0906C90.6206 48.0906 89.8372 48.3573 89.1539 48.8906C88.4706 49.4073 88.0539 50.1906 87.9039 51.2406H94.9039C94.8539 50.2739 94.5122 49.5073 93.8789 48.9406C93.2456 48.3739 92.4539 48.0906 91.5039 48.0906Z" fill="#5F6A70"/>
<path d="M100.304 58.6156V46.2156H102.679L102.904 48.5656C103.337 47.7489 103.937 47.1073 104.704 46.6406C105.487 46.1573 106.429 45.9156 107.529 45.9156V48.6906H106.804C106.07 48.6906 105.412 48.8156 104.829 49.0656C104.262 49.2989 103.804 49.7073 103.454 50.2906C103.12 50.8573 102.954 51.6489 102.954 52.6656V58.6156H100.304Z" fill="#5F6A70"/>
</svg>
