<svg width="153" height="31" viewBox="0 0 153 31" fill="none" xmlns="http://www.w3.org/2000/svg">
<path d="M5.54392 0C5.2397 0 4.95047 0.172711 4.75124 0.473345L0.25627 7.25586C0.0909862 7.50526 0 7.82422 0 8.15425V15.1744C0 16.4442 1.20568 17.0323 1.84163 16.0728L4.75124 11.6824C4.95047 11.3818 5.2397 11.2091 5.54392 11.2091H28.951C29.5304 11.2091 30 10.5949 30 9.83733V1.37174C30 0.614149 29.5304 0 28.951 0H5.54392Z" fill="white"/>
<path d="M5.54392 14.3668C5.2397 14.3668 4.95047 14.5395 4.75124 14.8401L0.25627 21.6226C0.0909862 21.872 0 22.191 0 22.521V29.5411C0 30.8109 1.20568 31.3991 1.84163 30.4395L4.75124 26.0492C4.95047 25.7485 5.2397 25.5758 5.54392 25.5758H28.951C29.5304 25.5758 30 24.9617 30 24.2041V15.7385C30 14.9809 29.5304 14.3668 28.951 14.3668H5.54392Z" fill="white"/>
<path d="M1.08288 14.8267L5.86049 8.21593C5.88121 8.18725 5.89837 8.17395 5.90624 8.16882H26.2034C26.21 8.17319 26.2213 8.18248 26.2366 8.20086C26.2809 8.25396 26.3312 8.35855 26.3312 8.50583V16.7571C26.3312 16.9044 26.2809 17.009 26.2366 17.0621C26.2213 17.0805 26.21 17.0897 26.2034 17.0941H5.89251C5.20671 17.0941 4.61359 17.4521 4.23949 17.9697L1.14694 22.2489C1.1346 22.266 1.12403 22.2782 1.11556 22.2869C1.07874 22.2578 1 22.17 1 21.959V15.1166C1 14.9891 1.03953 14.8867 1.08288 14.8267ZM26.1966 8.16542C26.1967 8.16525 26.198 8.16561 26.2005 8.16702C26.1979 8.1663 26.1966 8.16559 26.1966 8.16542ZM26.1966 17.0975C26.1966 17.0973 26.1979 17.0966 26.2005 17.0959C26.198 17.0973 26.1967 17.0977 26.1966 17.0975ZM1.0922 22.3061C1.09219 22.306 1.09317 22.3054 1.09524 22.3045C1.09326 22.3058 1.09222 22.3062 1.0922 22.3061Z" fill="#0F172A" stroke="white" stroke-width="2"/>
<path d="M51.25 19.3578C50.0333 19.3578 48.95 19.0911 48 18.5578C47.0667 18.0078 46.3333 17.2495 45.8 16.2828C45.2667 15.3161 45 14.1911 45 12.9078C45 11.6078 45.2583 10.4661 45.775 9.48279C46.3083 8.49945 47.0417 7.73279 47.975 7.18279C48.925 6.63279 50.025 6.35779 51.275 6.35779C52.4917 6.35779 53.55 6.63279 54.45 7.18279C55.35 7.71612 56.05 8.43279 56.55 9.33279C57.05 10.2328 57.3 11.2245 57.3 12.3078C57.3 12.4745 57.2917 12.6578 57.275 12.8578C57.275 13.0411 57.2667 13.2495 57.25 13.4828H47.6C47.6833 14.6828 48.075 15.5995 48.775 16.2328C49.4917 16.8495 50.3167 17.1578 51.25 17.1578C52 17.1578 52.625 16.9911 53.125 16.6578C53.6417 16.3078 54.025 15.8411 54.275 15.2578H56.925C56.5917 16.4245 55.925 17.3995 54.925 18.1828C53.9417 18.9661 52.7167 19.3578 51.25 19.3578ZM51.25 8.53279C50.3667 8.53279 49.5833 8.79946 48.9 9.33279C48.2167 9.84946 47.8 10.6328 47.65 11.6828H54.65C54.6 10.7161 54.2583 9.94946 53.625 9.38279C52.9917 8.81612 52.2 8.53279 51.25 8.53279Z" fill="white"/>
<path d="M58.1172 19.0578L62.5172 12.8578L58.1172 6.65779H60.9422L64.2672 11.4078L67.5672 6.65779H70.4172L66.0172 12.8578L70.4172 19.0578H67.5672L64.2672 14.3078L60.9422 19.0578H58.1172Z" fill="white"/>
<path d="M72.574 24.5578V6.65779H74.949L75.224 8.58279C75.624 7.99946 76.174 7.48279 76.874 7.03279C77.574 6.58279 78.474 6.35779 79.574 6.35779C80.774 6.35779 81.8324 6.64112 82.749 7.20779C83.6657 7.77445 84.3824 8.54945 84.899 9.53279C85.4324 10.5161 85.699 11.6328 85.699 12.8828C85.699 14.1328 85.4324 15.2495 84.899 16.2328C84.3824 17.1995 83.6657 17.9661 82.749 18.5328C81.8324 19.0828 80.7657 19.3578 79.549 19.3578C78.5824 19.3578 77.724 19.1661 76.974 18.7828C76.2407 18.3995 75.6574 17.8578 75.224 17.1578V24.5578H72.574ZM79.099 17.0578C80.2324 17.0578 81.1657 16.6745 81.899 15.9078C82.6324 15.1245 82.999 14.1078 82.999 12.8578C82.999 12.0411 82.8324 11.3161 82.499 10.6828C82.1657 10.0495 81.7074 9.55779 81.124 9.20779C80.5407 8.84112 79.8657 8.65779 79.099 8.65779C77.9657 8.65779 77.0324 9.04946 76.299 9.83279C75.5824 10.6161 75.224 11.6245 75.224 12.8578C75.224 14.1078 75.5824 15.1245 76.299 15.9078C77.0324 16.6745 77.9657 17.0578 79.099 17.0578Z" fill="white"/>
<path d="M94.3652 19.3578C93.1486 19.3578 92.0652 19.0911 91.1152 18.5578C90.1819 18.0078 89.4486 17.2495 88.9152 16.2828C88.3819 15.3161 88.1152 14.1911 88.1152 12.9078C88.1152 11.6078 88.3736 10.4661 88.8902 9.48279C89.4236 8.49945 90.1569 7.73279 91.0902 7.18279C92.0402 6.63279 93.1402 6.35779 94.3902 6.35779C95.6069 6.35779 96.6652 6.63279 97.5652 7.18279C98.4652 7.71612 99.1652 8.43279 99.6652 9.33279C100.165 10.2328 100.415 11.2245 100.415 12.3078C100.415 12.4745 100.407 12.6578 100.39 12.8578C100.39 13.0411 100.382 13.2495 100.365 13.4828H90.7152C90.7986 14.6828 91.1902 15.5995 91.8902 16.2328C92.6069 16.8495 93.4319 17.1578 94.3652 17.1578C95.1152 17.1578 95.7402 16.9911 96.2402 16.6578C96.7569 16.3078 97.1402 15.8411 97.3902 15.2578H100.04C99.7069 16.4245 99.0402 17.3995 98.0402 18.1828C97.0569 18.9661 95.8319 19.3578 94.3652 19.3578ZM94.3652 8.53279C93.4819 8.53279 92.6986 8.79946 92.0152 9.33279C91.3319 9.84946 90.9152 10.6328 90.7652 11.6828H97.7652C97.7152 10.7161 97.3736 9.94946 96.7402 9.38279C96.1069 8.81612 95.3152 8.53279 94.3652 8.53279Z" fill="white"/>
<path d="M103.165 19.0578V6.65779H105.515L105.715 8.83279C106.098 8.06612 106.657 7.46612 107.39 7.03279C108.14 6.58279 108.998 6.35779 109.965 6.35779C111.465 6.35779 112.64 6.82446 113.49 7.75779C114.357 8.69112 114.79 10.0828 114.79 11.9328V19.0578H112.165V12.2078C112.165 9.80779 111.182 8.60779 109.215 8.60779C108.232 8.60779 107.415 8.95779 106.765 9.65779C106.132 10.3578 105.815 11.3578 105.815 12.6578V19.0578H103.165Z" fill="white"/>
<path d="M122.861 19.3578C121.294 19.3578 120.003 18.9745 118.986 18.2078C117.969 17.4411 117.386 16.4245 117.236 15.1578H119.911C120.044 15.7245 120.361 16.2161 120.861 16.6328C121.361 17.0328 122.019 17.2328 122.836 17.2328C123.636 17.2328 124.219 17.0661 124.586 16.7328C124.953 16.3995 125.136 16.0161 125.136 15.5828C125.136 14.9495 124.878 14.5245 124.361 14.3078C123.861 14.0745 123.161 13.8661 122.261 13.6828C121.561 13.5328 120.861 13.3328 120.161 13.0828C119.478 12.8328 118.903 12.4828 118.436 12.0328C117.986 11.5661 117.761 10.9411 117.761 10.1578C117.761 9.07445 118.178 8.17445 119.011 7.45779C119.844 6.72446 121.011 6.35779 122.511 6.35779C123.894 6.35779 125.011 6.69112 125.861 7.35779C126.728 8.02445 127.236 8.96612 127.386 10.1828H124.836C124.753 9.64946 124.503 9.23279 124.086 8.93279C123.686 8.63279 123.144 8.48279 122.461 8.48279C121.794 8.48279 121.278 8.62446 120.911 8.90779C120.544 9.17445 120.361 9.52446 120.361 9.95779C120.361 10.3911 120.611 10.7328 121.111 10.9828C121.628 11.2328 122.303 11.4578 123.136 11.6578C123.969 11.8411 124.736 12.0578 125.436 12.3078C126.153 12.5411 126.728 12.8911 127.161 13.3578C127.594 13.8245 127.811 14.5078 127.811 15.4078C127.828 16.5411 127.386 17.4828 126.486 18.2328C125.603 18.9828 124.394 19.3578 122.861 19.3578Z" fill="white"/>
<path d="M136.504 19.3578C135.287 19.3578 134.204 19.0911 133.254 18.5578C132.321 18.0078 131.587 17.2495 131.054 16.2828C130.521 15.3161 130.254 14.1911 130.254 12.9078C130.254 11.6078 130.512 10.4661 131.029 9.48279C131.562 8.49945 132.296 7.73279 133.229 7.18279C134.179 6.63279 135.279 6.35779 136.529 6.35779C137.746 6.35779 138.804 6.63279 139.704 7.18279C140.604 7.71612 141.304 8.43279 141.804 9.33279C142.304 10.2328 142.554 11.2245 142.554 12.3078C142.554 12.4745 142.546 12.6578 142.529 12.8578C142.529 13.0411 142.521 13.2495 142.504 13.4828H132.854C132.937 14.6828 133.329 15.5995 134.029 16.2328C134.746 16.8495 135.571 17.1578 136.504 17.1578C137.254 17.1578 137.879 16.9911 138.379 16.6578C138.896 16.3078 139.279 15.8411 139.529 15.2578H142.179C141.846 16.4245 141.179 17.3995 140.179 18.1828C139.196 18.9661 137.971 19.3578 136.504 19.3578ZM136.504 8.53279C135.621 8.53279 134.837 8.79946 134.154 9.33279C133.471 9.84946 133.054 10.6328 132.904 11.6828H139.904C139.854 10.7161 139.512 9.94946 138.879 9.38279C138.246 8.81612 137.454 8.53279 136.504 8.53279Z" fill="white"/>
<path d="M145.304 19.0578V6.65779H147.679L147.904 9.00779C148.337 8.19112 148.937 7.54946 149.704 7.08279C150.487 6.59946 151.429 6.35779 152.529 6.35779V9.13279H151.804C151.07 9.13279 150.412 9.25779 149.829 9.50779C149.262 9.74112 148.804 10.1495 148.454 10.7328C148.12 11.2995 147.954 12.0911 147.954 13.1078V19.0578H145.304Z" fill="white"/>
</svg>
