<svg width="153" height="31" viewBox="0 0 153 31" fill="none" xmlns="http://www.w3.org/2000/svg">
<path d="M8.54392 0C8.2397 0 7.95047 0.172711 7.75124 0.473345L3.25627 7.25586C3.09099 7.50526 3 7.82422 3 8.15425V15.1744C3 16.4442 4.20568 17.0323 4.84163 16.0728L7.75124 11.6824C7.95047 11.3818 8.2397 11.2091 8.54392 11.2091H31.951C32.5304 11.2091 33 10.5949 33 9.83733V1.37174C33 0.614149 32.5304 0 31.951 0H8.54392Z" fill="white"/>
<path d="M8.54392 14.3668C8.2397 14.3668 7.95047 14.5395 7.75124 14.8402L3.25627 21.6227C3.09099 21.8721 3 22.191 3 22.5211V29.5412C3 30.811 4.20568 31.3992 4.84163 30.4396L7.75124 26.0492C7.95047 25.7486 8.2397 25.5759 8.54392 25.5759H31.951C32.5304 25.5759 33 24.9617 33 24.2042V15.7386C33 14.981 32.5304 14.3668 31.951 14.3668H8.54392Z" fill="white"/>
<path d="M4.08288 14.8267L8.86049 8.21593C8.88121 8.18725 8.89837 8.17395 8.90624 8.16882H29.2034C29.21 8.17319 29.2213 8.18248 29.2366 8.20086C29.2809 8.25396 29.3312 8.35855 29.3312 8.50583V16.7571C29.3312 16.9044 29.2809 17.009 29.2366 17.0621C29.2213 17.0805 29.21 17.0897 29.2034 17.0941H8.89251C8.20671 17.0941 7.61359 17.4521 7.23949 17.9697L4.14694 22.2489C4.1346 22.266 4.12403 22.2782 4.11556 22.2869C4.07874 22.2578 4 22.17 4 21.959V15.1166C4 14.9891 4.03953 14.8867 4.08288 14.8267ZM29.1966 8.16542C29.1967 8.16525 29.198 8.16561 29.2005 8.16702C29.1979 8.1663 29.1966 8.16559 29.1966 8.16542ZM29.1966 17.0975C29.1966 17.0973 29.1979 17.0966 29.2005 17.0959C29.198 17.0973 29.1967 17.0977 29.1966 17.0975ZM4.0922 22.3061C4.09219 22.306 4.09317 22.3054 4.09524 22.3045C4.09326 22.3058 4.09222 22.3062 4.0922 22.3061Z" fill="#0F172A" stroke="white" stroke-width="2"/>
<path d="M48 18.1937V8.76975H49.786L49.957 10.0997C50.261 9.61841 50.66 9.23842 51.154 8.95975C51.6607 8.68108 52.2433 8.54175 52.902 8.54175C54.3967 8.54175 55.4353 9.13075 56.018 10.3087C56.36 9.76408 56.816 9.33341 57.386 9.01675C57.9687 8.70008 58.5957 8.54175 59.267 8.54175C60.445 8.54175 61.3697 8.89641 62.041 9.60575C62.7123 10.3151 63.048 11.3727 63.048 12.7787V18.1937H61.034V12.9877C61.034 11.1637 60.3373 10.2517 58.944 10.2517C58.2347 10.2517 57.652 10.5177 57.196 11.0497C56.7527 11.5817 56.531 12.3417 56.531 13.3297V18.1937H54.517V12.9877C54.517 11.1637 53.814 10.2517 52.408 10.2517C51.7113 10.2517 51.135 10.5177 50.679 11.0497C50.2357 11.5817 50.014 12.3417 50.014 13.3297V18.1937H48Z" fill="white"/>
<path d="M66.2094 22.3737L68.4704 17.4147H67.9194L64.1954 8.76975H66.3804L69.2684 15.7427L72.2894 8.76975H74.4174L68.3374 22.3737H66.2094Z" fill="white"/>
<path d="M79.6277 18.4217C78.7031 18.4217 77.8797 18.2191 77.1577 17.8137C76.4484 17.3957 75.8911 16.8194 75.4857 16.0847C75.0804 15.3501 74.8777 14.4951 74.8777 13.5197C74.8777 12.5317 75.0741 11.6641 75.4667 10.9167C75.8721 10.1694 76.4294 9.58675 77.1387 9.16875C77.8607 8.75075 78.6967 8.54175 79.6467 8.54175C80.5714 8.54175 81.3757 8.75075 82.0597 9.16875C82.7437 9.57408 83.2757 10.1187 83.6557 10.8027C84.0357 11.4867 84.2257 12.2404 84.2257 13.0637C84.2257 13.1904 84.2194 13.3297 84.2067 13.4817C84.2067 13.6211 84.2004 13.7794 84.1877 13.9567H76.8537C76.9171 14.8687 77.2147 15.5654 77.7467 16.0467C78.2914 16.5154 78.9184 16.7497 79.6277 16.7497C80.1977 16.7497 80.6727 16.6231 81.0527 16.3697C81.4454 16.1037 81.7367 15.7491 81.9267 15.3057H83.9407C83.6874 16.1924 83.1807 16.9334 82.4207 17.5287C81.6734 18.1241 80.7424 18.4217 79.6277 18.4217ZM79.6277 10.1947C78.9564 10.1947 78.3611 10.3974 77.8417 10.8027C77.3224 11.1954 77.0057 11.7907 76.8917 12.5887H82.2117C82.1737 11.8541 81.9141 11.2714 81.4327 10.8407C80.9514 10.4101 80.3497 10.1947 79.6277 10.1947Z" fill="white"/>
<path d="M84.8468 18.1937L88.1908 13.4817L84.8468 8.76975H86.9938L89.5208 12.3797L92.0288 8.76975H94.1948L90.8508 13.4817L94.1948 18.1937H92.0288L89.5208 14.5837L86.9938 18.1937H84.8468Z" fill="white"/>
<path d="M95.834 22.3737V8.76975H97.639L97.848 10.2327C98.152 9.78941 98.57 9.39675 99.102 9.05475C99.634 8.71275 100.318 8.54175 101.154 8.54175C102.066 8.54175 102.87 8.75708 103.567 9.18775C104.264 9.61841 104.808 10.2074 105.201 10.9547C105.606 11.7021 105.809 12.5507 105.809 13.5007C105.809 14.4507 105.606 15.2994 105.201 16.0467C104.808 16.7814 104.264 17.3641 103.567 17.7947C102.87 18.2127 102.06 18.4217 101.135 18.4217C100.4 18.4217 99.748 18.2761 99.178 17.9847C98.6207 17.6934 98.1773 17.2817 97.848 16.7497V22.3737H95.834ZM100.793 16.6737C101.654 16.6737 102.364 16.3824 102.921 15.7997C103.478 15.2044 103.757 14.4317 103.757 13.4817C103.757 12.8611 103.63 12.3101 103.377 11.8287C103.124 11.3474 102.775 10.9737 102.332 10.7077C101.889 10.4291 101.376 10.2897 100.793 10.2897C99.9317 10.2897 99.2223 10.5874 98.665 11.1827C98.1203 11.7781 97.848 12.5444 97.848 13.4817C97.848 14.4317 98.1203 15.2044 98.665 15.7997C99.2223 16.3824 99.9317 16.6737 100.793 16.6737Z" fill="white"/>
<path d="M112.395 18.4217C111.471 18.4217 110.647 18.2191 109.925 17.8137C109.216 17.3957 108.659 16.8194 108.253 16.0847C107.848 15.3501 107.645 14.4951 107.645 13.5197C107.645 12.5317 107.842 11.6641 108.234 10.9167C108.64 10.1694 109.197 9.58675 109.906 9.16875C110.628 8.75075 111.464 8.54175 112.414 8.54175C113.339 8.54175 114.143 8.75075 114.827 9.16875C115.511 9.57408 116.043 10.1187 116.423 10.8027C116.803 11.4867 116.993 12.2404 116.993 13.0637C116.993 13.1904 116.987 13.3297 116.974 13.4817C116.974 13.6211 116.968 13.7794 116.955 13.9567H109.621C109.685 14.8687 109.982 15.5654 110.514 16.0467C111.059 16.5154 111.686 16.7497 112.395 16.7497C112.965 16.7497 113.44 16.6231 113.82 16.3697C114.213 16.1037 114.504 15.7491 114.694 15.3057H116.708C116.455 16.1924 115.948 16.9334 115.188 17.5287C114.441 18.1241 113.51 18.4217 112.395 18.4217ZM112.395 10.1947C111.724 10.1947 111.129 10.3974 110.609 10.8027C110.09 11.1954 109.773 11.7907 109.659 12.5887H114.979C114.941 11.8541 114.682 11.2714 114.2 10.8407C113.719 10.4101 113.117 10.1947 112.395 10.1947Z" fill="white"/>
<path d="M119.083 18.1937V8.76975H120.869L121.021 10.4227C121.312 9.84008 121.737 9.38408 122.294 9.05475C122.864 8.71275 123.516 8.54175 124.251 8.54175C125.391 8.54175 126.284 8.89641 126.93 9.60575C127.589 10.3151 127.918 11.3727 127.918 12.7787V18.1937H125.923V12.9877C125.923 11.1637 125.176 10.2517 123.681 10.2517C122.934 10.2517 122.313 10.5177 121.819 11.0497C121.338 11.5817 121.097 12.3417 121.097 13.3297V18.1937H119.083Z" fill="white"/>
<path d="M134.052 18.4217C132.861 18.4217 131.88 18.1304 131.107 17.5477C130.334 16.9651 129.891 16.1924 129.777 15.2297H131.81C131.911 15.6604 132.152 16.0341 132.532 16.3507C132.912 16.6547 133.412 16.8067 134.033 16.8067C134.641 16.8067 135.084 16.6801 135.363 16.4267C135.642 16.1734 135.781 15.8821 135.781 15.5527C135.781 15.0714 135.585 14.7484 135.192 14.5837C134.812 14.4064 134.28 14.2481 133.596 14.1087C133.064 13.9947 132.532 13.8427 132 13.6527C131.481 13.4627 131.044 13.1967 130.689 12.8547C130.347 12.5001 130.176 12.0251 130.176 11.4297C130.176 10.6064 130.493 9.92241 131.126 9.37775C131.759 8.82042 132.646 8.54175 133.786 8.54175C134.837 8.54175 135.686 8.79508 136.332 9.30175C136.991 9.80841 137.377 10.5241 137.491 11.4487H135.553C135.49 11.0434 135.3 10.7267 134.983 10.4987C134.679 10.2707 134.267 10.1567 133.748 10.1567C133.241 10.1567 132.849 10.2644 132.57 10.4797C132.291 10.6824 132.152 10.9484 132.152 11.2777C132.152 11.6071 132.342 11.8667 132.722 12.0567C133.115 12.2467 133.628 12.4177 134.261 12.5697C134.894 12.7091 135.477 12.8737 136.009 13.0637C136.554 13.2411 136.991 13.5071 137.32 13.8617C137.649 14.2164 137.814 14.7357 137.814 15.4197C137.827 16.2811 137.491 16.9967 136.807 17.5667C136.136 18.1367 135.217 18.4217 134.052 18.4217Z" fill="white"/>
<path d="M144.421 18.4217C143.496 18.4217 142.673 18.2191 141.951 17.8137C141.241 17.3957 140.684 16.8194 140.279 16.0847C139.873 15.3501 139.671 14.4951 139.671 13.5197C139.671 12.5317 139.867 11.6641 140.26 10.9167C140.665 10.1694 141.222 9.58675 141.932 9.16875C142.654 8.75075 143.49 8.54175 144.44 8.54175C145.364 8.54175 146.169 8.75075 146.853 9.16875C147.537 9.57408 148.069 10.1187 148.449 10.8027C148.829 11.4867 149.019 12.2404 149.019 13.0637C149.019 13.1904 149.012 13.3297 149 13.4817C149 13.6211 148.993 13.7794 148.981 13.9567H141.647C141.71 14.8687 142.008 15.5654 142.54 16.0467C143.084 16.5154 143.711 16.7497 144.421 16.7497C144.991 16.7497 145.466 16.6231 145.846 16.3697C146.238 16.1037 146.53 15.7491 146.72 15.3057H148.734C148.48 16.1924 147.974 16.9334 147.214 17.5287C146.466 18.1241 145.535 18.4217 144.421 18.4217ZM144.421 10.1947C143.749 10.1947 143.154 10.3974 142.635 10.8027C142.115 11.1954 141.799 11.7907 141.685 12.5887H147.005C146.967 11.8541 146.707 11.2714 146.226 10.8407C145.744 10.4101 145.143 10.1947 144.421 10.1947Z" fill="white"/>
</svg>
